<mxfile host="app.diagrams.net" modified="2024-06-19T20:58:53.928Z" agent="Mozilla/5.0 (X11; Linux x86_64; rv:126.0) Gecko/20100101 Firefox/126.0" version="24.5.5" etag="K5ioYypL3pVx6UYfhCcE" type="github">
  <diagram name="Page-1" id="y0jiZZzb0eV4B9-L1mTQ">
    <mxGraphModel>
      <root>
        <mxCell id="0" />
        <mxCell id="1" parent="0" />
      </root>
    </mxGraphModel>
  </diagram>
</mxfile>
